# xmcd
#
# Track frame offsets:
#	150
#	15560
#	29822
#	43576
#	60556
#	75121
#	90921
#	106611
#	120328
#	136115
#	151755
#	169875
#	184480
#	199497
#	216649
#	232285
#
# Disc length: 3313 seconds
#
# Revision: 1
# Processed by: cddbd v1.5.2PL0 Copyright (c) Steve Scherf et al.
# Submitted via: EasyCDDAExtractor 11.5.0.1
#
DISCID=d10cef10
DTITLE=Various Artist - NCT 023
DYEAR=2001
DGENRE=Country
TTITLE0=Aaron Tippin - People Like Us
TTITLE1=Darryl Worley - A Good Day To Run
TTITLE2=The Dixie Chicks - If I Fall You're Going Down With Me
TTITLE3=Neal McCoy - Beatin' It In
TTITLE4=The Wilkinsons - I Wanna Be That Girl
TTITLE5=Alan Jackson - When Somebody Loves You
TTITLE6=Martina McBride - It's My Time
TTITLE7=Jamie O'Neal - When I Think About Angels
TTITLE8=K.T. Oslin - Live Close By Visit Often
TTITLE9=Collin Raye - You Still Take Me There
TTITLE10=Sean Watkins - Let It Fall
TTITLE11=Clay Walker - Say No More
TTITLE12=Patty Loveless - The Last Thing On My Mind
TTITLE13=Lisa Angelle - I Will Love You
TTITLE14=Rascal Flatts - While You Loved Me
TTITLE15=Marshall Dyllon - You
EXTD=
EXTT0=
EXTT1=
EXTT2=
EXTT3=
EXTT4=
EXTT5=
EXTT6=
EXTT7=
EXTT8=
EXTT9=
EXTT10=
EXTT11=
EXTT12=
EXTT13=
EXTT14=
EXTT15=
PLAYORDER=
